# xmcd
#
# Track frame offsets:
#	150
#	17410
#	32768
#	51857
#	74605
#	91340
#	99893
#
# Disc length: 1491
#
# Revision: 1
# Processed by: cddbd v1.5.1PL0 Copyright (c) Steve Scherf et al.
# Submitted via: dBpowerAMP V4.0
# Normalized: r0:DSETVAR1,TDELIM( - )
#
DISCID=4f05d107
DTITLE=Various Artist - Red White and Bluegrass
DYEAR=1900
DGENRE=
TTITLE0=Lee Ann Womack - Forever Every Day
TTITLE1=Alisson Krauss and Union Station - So Long, So Wrong
TTITLE2=Dolly Parton - Little Sparrow
TTITLE3=Nickel Creek - The Lighthouse's Tale
TTITLE4=Shannon Lawson - Bad, Bad, Bad
TTITLE5=Bill Monroe - Scotland
TTITLE6=Lester Flatt and Earl Scruggs - Foggy Mountain Breakdown
EXTD=
EXTT0=
EXTT1=
EXTT2=
EXTT3=
EXTT4=
EXTT5=
EXTT6=
PLAYORDER=
